<svg width="40" height="40" viewBox="0 0 40 40" fill="none" xmlns="http://www.w3.org/2000/svg">
<circle cx="20" cy="20" r="20" transform="rotate(-180 20 20)" fill="white"/>
<g clip-path="url(#clip0_100_1041)">
<path d="M28.3332 19.2335V20.0002C28.3321 21.7972 27.7503 23.5458 26.6743 24.9851C25.5983 26.4244 24.0859 27.4773 22.3626 27.9868C20.6394 28.4963 18.7976 28.4351 17.1119 27.8124C15.4262 27.1896 13.987 26.0386 13.009 24.5311C12.0309 23.0236 11.5663 21.2403 11.6846 19.4471C11.8028 17.654 12.4975 15.9472 13.6651 14.5811C14.8326 13.2151 16.4105 12.263 18.1633 11.867C19.9162 11.471 21.7501 11.6522 23.3915 12.3835" stroke="#2CC6A2" stroke-width="2" stroke-linecap="round" stroke-linejoin="round"/>
<path d="M28.3333 13.333L20 21.6747L17.5 19.1747" stroke="#2CC6A2" stroke-width="2" stroke-linecap="round" stroke-linejoin="round"/>
</g>
<defs>
<clipPath id="clip0_100_1041">
<rect width="20" height="20" fill="white" transform="translate(10 10)"/>
</clipPath>
</defs>
</svg>