<svg width="60" height="60" viewBox="0 0 60 60" fill="none" xmlns="http://www.w3.org/2000/svg">
<g clip-path="url(#clip0_85_2207)">
<path d="M30 48C39.9411 48 48 39.9411 48 30C48 20.0589 39.9411 12 30 12C20.0589 12 12 20.0589 12 30C12 39.9411 20.0589 48 30 48Z" fill="#E35056"/>
<path d="M30 51C41.598 51 51 41.598 51 30C51 18.402 41.598 9 30 9C18.402 9 9 18.402 9 30C9 41.598 18.402 51 30 51Z" fill="#E35056" fill-opacity="0.8"/>
<path d="M30 54C43.2548 54 54 43.2548 54 30C54 16.7452 43.2548 6 30 6C16.7452 6 6 16.7452 6 30C6 43.2548 16.7452 54 30 54Z" fill="#E35056" fill-opacity="0.5"/>
<path d="M30 57C44.9117 57 57 44.9117 57 30C57 15.0883 44.9117 3 30 3C15.0883 3 3 15.0883 3 30C3 44.9117 15.0883 57 30 57Z" fill="#E35056" fill-opacity="0.2"/>
<path d="M30 60C46.5685 60 60 46.5685 60 30C60 13.4315 46.5685 0 30 0C13.4315 0 0 13.4315 0 30C0 46.5685 13.4315 60 30 60Z" fill="#E35056" fill-opacity="0.2"/>
</g>
<defs>
<clipPath id="clip0_85_2207">
<rect width="60" height="60" fill="white"/>
</clipPath>
</defs>
</svg>
